<svg width="115" height="110" viewBox="0 0 115 110" fill="none" xmlns="http://www.w3.org/2000/svg">
<rect x="5" y="4" width="100" height="100" fill="white"/>
<rect x="5" y="4" width="100" height="100" stroke="black"/>
<path d="M29.58 90.9303L27.8099 58.7539L32.1583 54.9226L49.7012 83.0842L45.9283 86.4084L32.328 64.6554L34.1621 96.7754L29.7498 100.663L12.2069 72.5015L15.9797 69.1773L29.58 90.9303ZM19.4151 51.611L22.9321 48.5122C24.1656 50.4923 24.5732 52.6416 24.1549 54.9601C23.7473 57.2692 22.5203 59.3253 20.474 61.1282C18.4597 62.903 16.468 63.6829 14.4989 63.4678C12.5299 63.2528 10.9286 62.1552 9.69513 60.1751L13.2122 57.0763C13.8061 58.0296 14.5613 58.6611 15.4777 58.9706C16.3941 59.2802 17.4118 58.942 18.5309 57.956C19.6499 56.97 20.2255 55.9043 20.2577 54.759C20.2898 53.6138 20.009 52.5644 19.4151 51.611ZM67.1978 68.577C64.9384 70.5677 62.5724 71.6963 60.0999 71.9627C57.6274 72.2291 55.2222 71.6694 52.8843 70.2837C50.5571 68.8887 48.4651 66.7184 46.6083 63.773C44.7971 60.9009 43.6721 58.0017 43.2331 55.0755C42.7954 52.1292 43.0264 49.351 43.926 46.7409C44.827 44.1107 46.3646 41.8378 48.5388 39.9222C50.7982 37.9314 53.1636 36.8128 55.6348 36.5665C58.1073 36.3001 60.5172 36.8651 62.8645 38.2614C65.2023 39.6471 67.3091 41.8233 69.1847 44.7901C70.977 47.6408 72.082 50.5387 72.4997 53.4837C72.9187 56.4087 72.683 59.1816 71.7927 61.8024C70.9036 64.4031 69.372 66.6613 67.1978 68.577ZM64.2756 65.1314C66.0022 63.6102 67.1099 61.8485 67.5988 59.8465C68.0983 57.835 68.1039 55.7571 67.6155 53.6128C67.1377 51.459 66.2955 49.4181 65.089 47.49C63.9362 45.666 62.6156 44.1886 61.1271 43.0579C59.6292 41.9165 58.0564 41.3239 56.4087 41.2802C54.7515 41.2257 53.1023 41.9216 51.461 43.3677C49.7344 44.8889 48.6207 46.6653 48.1199 48.6968C47.6298 50.7189 47.6336 52.8075 48.1314 54.9625C48.6292 57.1175 49.4868 59.1543 50.704 61.073C51.8568 62.8971 53.1721 64.3792 54.6499 65.5193C56.1289 66.6393 57.6924 67.2212 59.3401 67.265C60.9891 67.2887 62.6343 66.5776 64.2756 65.1314ZM91.6345 62.4944C90.995 63.0578 90.3832 63.5022 89.799 63.8276C89.2349 64.1543 88.82 64.3495 88.5543 64.4132L87.1592 59.7357C88.2398 59.2002 89.0788 58.5839 89.6764 57.887C90.294 57.1914 90.6537 56.2782 90.7554 55.1473C90.8771 54.0178 90.7344 52.5344 90.3272 50.6971L89.6921 47.849L63.1326 27.6317L67.0654 24.1667L87.8796 40.6996L88.1354 40.4742L80.8779 11.9967L85.1304 8.24993L94.8334 49.6233C95.285 51.554 95.456 53.3059 95.3465 54.879C95.237 56.4522 94.8657 57.8679 94.2326 59.1261C93.6089 60.3951 92.7429 61.5178 91.6345 62.4944Z" fill="black"/>
<line x1="8" y1="102.5" x2="102" y2="102.5" stroke="white" stroke-width="3"/>
</svg>
