<svg width="100" height="100" viewBox="0 0 100 100" fill="none" xmlns="http://www.w3.org/2000/svg">
<rect width="100" height="100" fill="white"/>
<rect x="1.5" y="1.5" width="97" height="97" stroke="black" stroke-width="3"/>
<path d="M9.94318 37.0909L12.4574 22.0909H14.0767L13.7926 23.8239H13.9915C14.143 23.6345 14.3513 23.393 14.6165 23.0994C14.8864 22.8011 15.2486 22.536 15.7031 22.304C16.1624 22.0672 16.7472 21.9489 17.4574 21.9489C18.3759 21.9489 19.1454 22.1785 19.7656 22.6378C20.3859 23.0971 20.8239 23.7481 21.0795 24.5909C21.3352 25.4337 21.3684 26.428 21.179 27.5739C20.9896 28.7292 20.6274 29.7306 20.0923 30.5781C19.5573 31.4209 18.9039 32.0743 18.1321 32.5384C17.3603 32.9976 16.5199 33.2273 15.6108 33.2273C14.91 33.2273 14.3679 33.1113 13.9844 32.8793C13.6009 32.6425 13.3215 32.375 13.1463 32.0767C12.9711 31.7737 12.8362 31.5227 12.7415 31.3239H12.5994L11.6335 37.0909H9.94318ZM13.196 27.5455C13.0634 28.3693 13.0634 29.0961 13.196 29.7259C13.3333 30.3509 13.6056 30.8409 14.0128 31.196C14.4247 31.5464 14.9669 31.7216 15.6392 31.7216C16.34 31.7216 16.9531 31.5369 17.4787 31.1676C18.009 30.7936 18.4446 30.2917 18.7855 29.6619C19.1312 29.0275 19.3703 28.322 19.5028 27.5455C19.6259 26.7784 19.6212 26.0871 19.4886 25.4716C19.3561 24.8513 19.0862 24.3613 18.679 24.0014C18.2718 23.6368 17.7131 23.4545 17.0028 23.4545C16.321 23.4545 15.7173 23.6274 15.1918 23.973C14.6709 24.3139 14.2401 24.7921 13.8991 25.4077C13.563 26.0185 13.3286 26.7311 13.196 27.5455ZM22.8533 37.0909C22.5692 37.0909 22.3183 37.0672 22.1005 37.0199C21.8874 36.9773 21.7406 36.9347 21.6602 36.892L22.342 35.4148C22.7302 35.5189 23.0759 35.5497 23.3789 35.5071C23.6867 35.4692 23.9779 35.3201 24.2525 35.0597C24.5318 34.804 24.823 34.4015 25.1261 33.8523L25.5948 33L23.4073 22.0909H25.1545L26.717 30.8125H26.8306L31.2908 22.0909H33.18L26.4897 34.5767C26.1772 35.1591 25.8339 35.6349 25.4599 36.0043C25.0858 36.3736 24.681 36.6458 24.2454 36.821C23.8098 37.0009 23.3458 37.0909 22.8533 37.0909ZM37.587 33.2273C36.5595 33.2273 35.7167 32.9858 35.0586 32.5028C34.4052 32.0199 33.9506 31.3546 33.695 30.5071C33.4393 29.6596 33.4014 28.6913 33.5813 27.6023C33.7612 26.4943 34.1258 25.5166 34.6751 24.669C35.2243 23.8168 35.9085 23.1515 36.7276 22.6733C37.5468 22.1903 38.4487 21.9489 39.4336 21.9489C40.2006 21.9489 40.8683 22.0909 41.4364 22.375C42.0046 22.6591 42.4426 23.0568 42.7504 23.5682C43.0581 24.0795 43.2025 24.6761 43.1836 25.358H41.5075C41.4601 24.8608 41.247 24.4205 40.8683 24.0369C40.4942 23.6487 39.9402 23.4545 39.2063 23.4545C38.5529 23.4545 37.9516 23.625 37.4023 23.9659C36.8531 24.3021 36.3915 24.7779 36.0174 25.3935C35.6433 26.0043 35.39 26.7216 35.2575 27.5455C35.1154 28.3883 35.1272 29.1222 35.293 29.7472C35.4587 30.3722 35.7594 30.8575 36.195 31.2031C36.6306 31.5488 37.1798 31.7216 37.8427 31.7216C38.2783 31.7216 38.6855 31.6458 39.0643 31.4943C39.4431 31.3428 39.7792 31.125 40.0728 30.8409C40.3664 30.5568 40.5984 30.2159 40.7688 29.8182H42.445C42.2366 30.4621 41.9028 31.0421 41.4435 31.5582C40.9843 32.0696 40.4279 32.4768 39.7745 32.7798C39.1211 33.0781 38.3919 33.2273 37.587 33.2273ZM48.7589 33.2273C47.7314 33.2273 46.8886 32.9858 46.2305 32.5028C45.5771 32.0199 45.1225 31.3546 44.8668 30.5071C44.6112 29.6596 44.5733 28.6913 44.7532 27.6023C44.9331 26.4943 45.2977 25.5166 45.8469 24.669C46.3962 23.8168 47.0804 23.1515 47.8995 22.6733C48.7186 22.1903 49.6206 21.9489 50.6055 21.9489C51.3725 21.9489 52.0401 22.0909 52.6083 22.375C53.1765 22.6591 53.6145 23.0568 53.9222 23.5682C54.23 24.0795 54.3744 24.6761 54.3555 25.358H52.6793C52.632 24.8608 52.4189 24.4205 52.0401 24.0369C51.6661 23.6487 51.1121 23.4545 50.3782 23.4545C49.7248 23.4545 49.1235 23.625 48.5742 23.9659C48.025 24.3021 47.5633 24.7779 47.1893 25.3935C46.8152 26.0043 46.5619 26.7216 46.4293 27.5455C46.2873 28.3883 46.2991 29.1222 46.4648 29.7472C46.6306 30.3722 46.9312 30.8575 47.3668 31.2031C47.8024 31.5488 48.3517 31.7216 49.0146 31.7216C49.4502 31.7216 49.8574 31.6458 50.2362 31.4943C50.6149 31.3428 50.9511 31.125 51.2447 30.8409C51.5382 30.5568 51.7702 30.2159 51.9407 29.8182H53.6168C53.4085 30.4621 53.0747 31.0421 52.6154 31.5582C52.1561 32.0696 51.5998 32.4768 50.9464 32.7798C50.293 33.0781 49.5638 33.2273 48.7589 33.2273ZM55.5273 33L57.3455 22.0909H59.0217L58.2262 26.8352H59.3342L64.0501 22.0909H66.2092L60.9251 27.3466L64.4478 33H62.2887L59.4762 28.3977H57.9705L57.2035 33H55.5273ZM69.4513 33.2557C68.7601 33.2557 68.154 33.1255 67.6332 32.8651C67.1123 32.5999 66.7264 32.2188 66.4755 31.7216C66.2246 31.2197 66.1559 30.6136 66.2695 29.9034C66.3784 29.2784 66.5891 28.7718 66.9016 28.3835C67.2141 27.9905 67.5929 27.6828 68.038 27.4602C68.4878 27.233 68.9708 27.0649 69.4869 26.956C70.0077 26.8423 70.5262 26.7547 71.0423 26.6932C71.7146 26.608 72.2615 26.5417 72.6829 26.4943C73.1043 26.447 73.4215 26.3688 73.6346 26.2599C73.8477 26.151 73.9779 25.964 74.0252 25.6989V25.642C74.1388 24.946 74.0465 24.4039 73.7482 24.0156C73.4499 23.6226 72.9173 23.4261 72.1502 23.4261C71.3548 23.4261 70.6895 23.6013 70.1545 23.9517C69.6194 24.3021 69.2241 24.6761 68.9684 25.0739L67.4911 24.5057C67.8794 23.8428 68.3434 23.3267 68.8832 22.9574C69.4229 22.5833 69.9888 22.3229 70.5806 22.1761C71.1725 22.0246 71.743 21.9489 72.2923 21.9489C72.6426 21.9489 73.038 21.9915 73.4783 22.0767C73.9187 22.1572 74.3306 22.3253 74.7141 22.581C75.1024 22.8366 75.3936 23.2225 75.5877 23.7386C75.7866 24.2547 75.815 24.946 75.6729 25.8125L74.4798 33H72.8036L73.0593 31.5227H72.9741C72.8226 31.7595 72.5906 32.0128 72.2781 32.2827C71.9703 32.5526 71.5797 32.7822 71.1062 32.9716C70.6374 33.161 70.0858 33.2557 69.4513 33.2557ZM69.9343 31.75C70.5972 31.75 71.1772 31.6198 71.6744 31.3594C72.1763 31.099 72.5787 30.7628 72.8817 30.3509C73.1895 29.9389 73.3813 29.5057 73.457 29.0511L73.7127 27.517C73.6275 27.6023 73.4594 27.6804 73.2085 27.7514C72.9575 27.8177 72.6734 27.8769 72.3562 27.929C72.0437 27.9763 71.7383 28.0189 71.44 28.0568C71.1464 28.09 70.9097 28.1184 70.7298 28.142C70.2847 28.1989 69.8609 28.2912 69.4585 28.419C69.0607 28.5421 68.7246 28.7292 68.4499 28.9801C68.18 29.2263 68.012 29.5625 67.9457 29.9886C67.8462 30.571 67.9859 31.0114 68.3647 31.3097C68.7435 31.6032 69.2667 31.75 69.9343 31.75ZM84.1016 33L85.6641 23.625H82.7663C82.1082 23.625 81.5661 23.7765 81.1399 24.0795C80.7185 24.3826 80.4652 24.7992 80.38 25.3295C80.29 25.8504 80.3894 26.2599 80.6783 26.5582C80.9718 26.8565 81.4122 27.0057 81.9993 27.0057H85.522L85.2663 28.5682H81.7436C81.005 28.5682 80.3894 28.438 79.897 28.1776C79.4046 27.9171 79.0542 27.5455 78.8459 27.0625C78.6423 26.5748 78.5949 25.9972 78.7038 25.3295C78.8175 24.6572 79.0637 24.0795 79.4425 23.5966C79.826 23.1136 80.3208 22.742 80.9268 22.4815C81.5376 22.2211 82.236 22.0909 83.022 22.0909H87.5107L85.6925 33H84.1016ZM76.8288 33L80.8345 27.5739H82.6527L78.647 33H76.8288ZM12.7273 54.5284L19.375 46.0909H21.3068L19.4886 57H17.8125L19.2045 48.5625L12.5852 57H10.625L12.4432 46.0909H14.1193L12.7273 54.5284ZM30.8825 50.7784L30.6268 52.3409H24.604L24.8597 50.7784H30.8825ZM26.0529 46.0909L24.2347 57H22.5586L24.3768 46.0909H26.0529ZM32.9563 46.0909L31.1381 57H29.462L31.2802 46.0909H32.9563ZM32.5231 60.125L33.3185 55.4375H34.2276C34.4833 55.2055 34.7129 54.9545 34.9165 54.6847C35.1249 54.4148 35.319 54.0952 35.4989 53.7259C35.6789 53.3518 35.8564 52.8973 36.0316 52.3622C36.2068 51.8224 36.3915 51.1714 36.5856 50.4091L37.6651 46.0909H44.5969L43.0629 55.4375H44.739L43.9435 60.125H42.2674L42.7788 57H34.7106L34.1992 60.125H32.5231ZM36.131 55.4375H41.3867L42.6651 47.6534H38.9719L38.2333 50.4091C37.9255 51.5502 37.613 52.5469 37.2958 53.3991C36.9833 54.2514 36.5951 54.9309 36.131 55.4375ZM48.8015 54.5284L55.4492 46.0909H57.381L55.5629 57H53.8867L55.2788 48.5625L48.6594 57H46.6992L48.5174 46.0909H50.1935L48.8015 54.5284ZM68.6896 56.0057L70.2379 46.6307H71.843L70.2947 56.0057H68.6896ZM65.4368 52.1136L65.7067 50.5227H75.0817L74.8118 52.1136H65.4368ZM16.9602 78.7273L22.2159 70.0909H23.8068L17.2727 81H15.9091L13.0966 70.0909H14.6591L16.9602 78.7273ZM14.1193 70.0909L12.3011 81H10.625L12.4432 70.0909H14.1193ZM20.8807 81L22.6989 70.0909H24.375L22.5568 81H20.8807ZM25.6463 85.0909C25.3622 85.0909 25.1113 85.0672 24.8935 85.0199C24.6804 84.9773 24.5336 84.9347 24.4531 84.892L25.1349 83.4148C25.5232 83.5189 25.8688 83.5497 26.1719 83.5071C26.4796 83.4692 26.7708 83.3201 27.0455 83.0597C27.3248 82.804 27.616 82.4015 27.919 81.8523L28.3878 81L26.2003 70.0909H27.9474L29.5099 78.8125H29.6236L34.0838 70.0909H35.973L29.2827 82.5767C28.9702 83.1591 28.6269 83.6349 28.2528 84.0043C27.8788 84.3736 27.474 84.6458 27.0384 84.821C26.6027 85.0009 26.1387 85.0909 25.6463 85.0909ZM36.1541 78.2159H37.9439C37.8965 78.7083 38.0552 79.0824 38.4197 79.3381C38.7891 79.5938 39.3028 79.7216 39.9609 79.7216C40.6333 79.7216 41.2299 79.5843 41.7507 79.3097C42.2763 79.0303 42.5888 78.5805 42.6882 77.9602C42.7498 77.5956 42.7143 77.2784 42.5817 77.0085C42.4491 76.7339 42.2313 76.5208 41.9283 76.3693C41.63 76.2178 41.2583 76.142 40.8132 76.142H38.9382L39.1939 74.6364H41.0689C41.7318 74.6364 42.2479 74.4848 42.6172 74.1818C42.9865 73.8788 43.209 73.5 43.2848 73.0455C43.3653 72.5578 43.2564 72.1671 42.9581 71.8736C42.6598 71.5753 42.1911 71.4261 41.5518 71.4261C40.9174 71.4261 40.3634 71.5705 39.8899 71.8594C39.4164 72.1435 39.1276 72.5104 39.0234 72.9602H37.2621C37.3804 72.3731 37.648 71.8546 38.0646 71.4048C38.4813 70.9503 39.0045 70.5952 39.6342 70.3395C40.2687 70.0791 40.9647 69.9489 41.7223 69.9489C42.4893 69.9489 43.1333 70.0838 43.6541 70.3537C44.175 70.6188 44.5514 70.9811 44.7834 71.4403C45.0201 71.8949 45.0888 72.411 44.9893 72.9886C44.8899 73.6042 44.6342 74.1013 44.2223 74.4801C43.8151 74.8589 43.3416 75.1288 42.8018 75.2898L42.7734 75.4034C43.1806 75.4318 43.5168 75.5644 43.782 75.8011C44.0518 76.0331 44.2389 76.3385 44.343 76.7173C44.4519 77.0914 44.4685 77.5057 44.3928 77.9602C44.2839 78.6231 44.0116 79.2008 43.576 79.6932C43.1404 80.1809 42.5911 80.5597 41.9283 80.8295C41.2654 81.0947 40.5339 81.2273 39.7337 81.2273C38.9619 81.2273 38.2919 81.1018 37.7237 80.8509C37.1603 80.5952 36.7365 80.2424 36.4524 79.7926C36.1731 79.3381 36.0736 78.8125 36.1541 78.2159ZM48.8636 74.0398H51.9886C53.267 74.0398 54.188 74.3641 54.7514 75.0128C55.3196 75.6615 55.5256 76.483 55.3693 77.4773C55.2557 78.1307 55.0024 78.7249 54.6094 79.2599C54.2164 79.7902 53.7003 80.214 53.0611 80.5312C52.4219 80.8438 51.6761 81 50.8239 81H46.25L48.0682 70.0909H49.7443L48.1818 79.4375H51.0795C51.7472 79.4375 52.3224 79.2647 52.8054 78.919C53.2931 78.5687 53.5795 78.1165 53.6648 77.5625C53.7642 76.9801 53.6293 76.509 53.2599 76.1491C52.8954 75.7846 52.3864 75.6023 51.733 75.6023H48.608L48.8636 74.0398ZM56.5057 81L58.3239 70.0909H60L58.1818 81H56.5057ZM61.25 81L63.0682 70.0909H64.7443L63.9489 74.8352H65.0568L69.7727 70.0909H71.9318L66.6477 75.3466L70.1705 81H68.0114L65.1989 76.3977H63.6932L62.9261 81H61.25ZM75.174 81.2557C74.4827 81.2557 73.8767 81.1255 73.3558 80.8651C72.835 80.5999 72.4491 80.2188 72.1982 79.7216C71.9472 79.2197 71.8786 78.6136 71.9922 77.9034C72.1011 77.2784 72.3118 76.7718 72.6243 76.3835C72.9368 75.9905 73.3156 75.6828 73.7607 75.4602C74.2105 75.233 74.6934 75.0649 75.2095 74.956C75.7304 74.8423 76.2488 74.7547 76.7649 74.6932C77.4373 74.608 77.9841 74.5417 78.4055 74.4943C78.8269 74.447 79.1442 74.3688 79.3572 74.2599C79.5703 74.151 79.7005 73.964 79.7479 73.6989V73.642C79.8615 72.946 79.7692 72.4039 79.4709 72.0156C79.1726 71.6226 78.6399 71.4261 77.8729 71.4261C77.0774 71.4261 76.4122 71.6013 75.8771 71.9517C75.3421 72.3021 74.9467 72.6761 74.6911 73.0739L73.2138 72.5057C73.602 71.8428 74.0661 71.3267 74.6058 70.9574C75.1456 70.5833 75.7114 70.3229 76.3033 70.1761C76.8951 70.0246 77.4657 69.9489 78.0149 69.9489C78.3653 69.9489 78.7607 69.9915 79.201 70.0767C79.6413 70.1572 80.0533 70.3253 80.4368 70.581C80.825 70.8366 81.1162 71.2225 81.3104 71.7386C81.5092 72.2547 81.5376 72.946 81.3956 73.8125L80.2024 81H78.5263L78.782 79.5227H78.6967C78.5452 79.7595 78.3132 80.0128 78.0007 80.2827C77.6929 80.5526 77.3023 80.7822 76.8288 80.9716C76.3601 81.161 75.8085 81.2557 75.174 81.2557ZM75.657 79.75C76.3198 79.75 76.8999 79.6198 77.397 79.3594C77.8989 79.099 78.3014 78.7628 78.6044 78.3509C78.9122 77.9389 79.1039 77.5057 79.1797 77.0511L79.4354 75.517C79.3501 75.6023 79.1821 75.6804 78.9311 75.7514C78.6802 75.8177 78.3961 75.8769 78.0788 75.929C77.7663 75.9763 77.4609 76.0189 77.1626 76.0568C76.8691 76.09 76.6323 76.1184 76.4524 76.142C76.0073 76.1989 75.5836 76.2912 75.1811 76.419C74.7834 76.5421 74.4472 76.7292 74.1726 76.9801C73.9027 77.2263 73.7346 77.5625 73.6683 77.9886C73.5689 78.571 73.7086 79.0114 74.0874 79.3097C74.4661 79.6032 74.9893 79.75 75.657 79.75Z" fill="black"/>
<line x1="3" y1="98.5" x2="97" y2="98.5" stroke="white" stroke-width="3"/>
</svg>
